<svg xmlns="http://www.w3.org/2000/svg" width="188.558" height="188.558" viewBox="0 0 188.558 188.558"><path d="M185.975 66.295c1.405-1.681.868-4.792-1.593-5.387-13.578-3.277-29.998-1.736-43.923-1.711-5.255.009-12.495-.466-19.293.182 4.317-2.093 8.423-4.606 12.138-7.56 10.111-8.039 14.912-27.873 4.941-38.039-15.065-15.359-35.78 5.314-46.498 24.189-4.59-17.832-17.45-36.585-34.749-29.105-12.102 5.231-13.217 22.842-8.8 32.998 3.644 8.381 12.707 14.757 22.283 17.83C48.5 57.32 26.376 56.958 4.272 55.941c-2.173-.1-3.998 1.893-3.993 3.993.024 10.572-2.062 24.145 4.815 33.101.18.233.392.423.624.57-.638.246-1.279.472-1.918.739-2.103.881-1.35 3.807.946 3.429 12.722-2.095 25.392-2.059 38.054-1.264.2.048.388.054.572.035 13.818.892 27.626 2.668 41.485 3.585 1.657.11 3.642-1.31 3.925-2.989 1.55-9.19 4.83-22.073 2.063-31.144-.078-.257-.212-.441-.325-.653.392.138.81.244 1.283.27 3.894.214 7.798-.021 11.652-.617-.576.715-.987 1.493-1.325 2.299-.474.33-.75.896-.501 1.458-.781 2.9-.602 6.146-.706 9.199-.209 6.053-.087 12.099.684 18.105.391 3.048 3.907 3.418 5.067 1.12 12.37-.865 24.642-1.989 37.058-2.139 12.771-.154 24.509 2.989 36.992 4.209 1.152.112 1.938-.345 2.432-1.034.612-.264 1.132-.738 1.346-1.497 1.595-5.668 3.009-11.285 3.683-17.144.453-3.959 1.1-10.288-2.21-13.277zM9.329 92.321a2.294 2.294 0 0 0-.091-1.034c-2-6.271-1.948-13.19-1.582-20.006 1.435 2.992 3.292 5.771 5.339 8.415 2.161 2.789 4.906 7.041 7.993 9.857-3.902.622-7.789 1.508-11.659 2.768zm16.696-3.417c-1.949-3.425-6.27-6.394-8.865-9.209-3.671-3.983-7.006-8.37-9.176-13.36-.008-.02-.024-.028-.033-.046.045-.725.092-1.45.132-2.166.321.016.642.029.963.046 4.007 5.867 9.036 10.992 14.162 15.881 2.823 2.691 5.765 5.65 8.839 8.449-2.01.084-4.02.204-6.022.405zm13.49-.478c-3.906-3.307-8.34-6.243-12.112-9.399-5.411-4.526-10.416-9.386-14.997-14.695 3.739.18 7.481.344 11.222.507.069.164.136.329.266.484 5.138 6.144 10.777 11.76 16.769 17.069 2.146 1.902 4.63 4.291 7.283 6.406-2.821-.179-5.633-.323-8.431-.372zm17.746 1.115c-4.437-4.261-10.547-7.456-15.233-11.44-4.78-4.064-9.295-8.473-13.599-13.051 3.533.156 7.065.328 10.596.506.013.442.185.888.623 1.216 6.027 4.521 11.453 9.532 16.804 14.82 2.849 2.814 5.796 6.003 9.01 8.743-2.742-.272-5.481-.543-8.201-.794zm17.276 1.572c-5.216-4.98-11.459-9.098-16.898-13.89-4.569-4.024-9.172-7.992-14.184-11.435a586.82 586.82 0 0 1 16.02 1.104c2.388 4.84 5.933 9.058 9.693 12.896 3.058 3.123 7.005 7.207 11.209 9.709-1.145 1.318-2.894 1.717-5.84 1.616zm8.152-11.728a82.907 82.907 0 0 1-.474 4.548c-2.906-2.143-6.057-4.083-8.736-6.373-3.621-3.096-7.034-6.455-9.797-10.312 6.242.579 12.471 1.297 18.68 2.245.387.059.751.057 1.103.026-.579 3.235-.52 6.652-.776 9.866zM61.943 45.334c-8.953-7.18-10.115-36.057 6.037-28.712 11.959 5.438 19.306 25.946 16.969 38.021a.445.445 0 0 1 .036.005c-.045.25-.089.5-.123.741-8.654-1.146-16.022-4.522-22.919-10.055zM87.377 63.68c-.327-.971-1.109-1.749-2.393-2.074.42-.033.85-.047 1.261-.099a3.46 3.46 0 0 0 1.431-.523c-.02.951.241 1.915.765 2.723a3.417 3.417 0 0 0-1.064-.027zm93.006 4.304c-.655 3.558.612 7.925.453 11.587-.046 1.072-.131 2.145-.2 3.218-2.105-3.231-5.817-6.009-8.464-8.649-1.943-1.938-3.922-3.847-5.97-5.675 4.829.179 9.623.144 14.181-.481zM93.045 57.059c.014-.059.04-.108.052-.17.108-.562.198-1.147.27-1.753 2.118-13.543 20.027-39.682 35.654-37.562 8.354 1.132 5.69 17.336 3.823 21.456-2.493 5.505-8.333 9.028-13.329 11.828-7.763 4.353-17.549 6.472-26.47 6.201zm14.415 34.659c.329-3.916.476-7.841.699-11.775.074-1.294.253-2.612.436-3.936a327.437 327.437 0 0 1 5.336 6.011c2.002 2.304 4.104 5.153 6.484 7.541-4.35.644-8.681 1.35-12.955 2.159zm18.969-2.993c-2.808-3.394-6.864-6.349-9.813-9.393-2.474-2.554-4.951-5.085-7.538-7.5.104-1.533.082-3.047-.23-4.512 1.385.349 2.84.595 4.34.773 5.063 4.578 9.868 9.43 14.872 14.071 1.596 1.479 3.73 3.86 6.047 5.758-2.561.229-5.122.489-7.678.803zm21.863-1.514c-2.297.009-4.604.091-6.912.205-.933-1.32-2.358-2.145-3.715-3.106-2.715-1.923-5.264-4.088-7.814-6.219-3.867-3.233-7.718-6.488-11.627-9.67 2.556.06 5.191-.027 7.834-.169-.046.479.094.962.562 1.325 5.21 4.044 10.247 8.297 15.355 12.467 2.004 1.636 4.134 3.475 6.375 5.167h-.058zm9.064.046c-4.07-3.044-8.743-5.513-12.794-8.565-4.682-3.528-9.154-7.312-13.915-10.729 4.385-.312 8.653-.646 12.52-.673 5.374 4.514 10.331 9.452 15.371 14.334 1.942 1.881 3.937 4.016 6.028 6.066a97.569 97.569 0 0 0-7.21-.433zm16.967 2.295c-4.34-4.471-9.972-8.29-14.518-12.377-3.809-3.425-7.775-6.668-11.839-9.784 3.946.172 8.051.5 12.188.768 3.09 2.916 6.036 5.95 8.871 9.128 2.747 3.079 5.504 7.615 9.183 9.583.768.411 1.544.349 2.154.008-.133 1.674-.271 3.347-.403 5.021-1.759-.975-3.655-1.733-5.636-2.347zm-88.082 40.589c-.024-6.191-.47-12.367-1.671-18.481-.344-1.753-2.192-2.939-3.883-2.957-20.567-.212-43.198-4.521-62.575 4.337-2.069.945-1.632 3.591-.154 4.766-4.986 19.071-2.694 39.332-2.602 58.835.011 2.4 1.907 4.051 4.198 4.198 18.523 1.193 37.039.065 55.575-.067 1.16-.008 2.054-.42 2.709-1.038 1.793.729 4.245-.016 4.788-2.176 2.373-9.447 2.022-20.258 2.815-29.97.44-5.387.761-10.792.79-16.189a1.58 1.58 0 0 0 .01-1.258zm-8.344-7.75c-.549-.471-1.104-.938-1.627-1.424-1.59-1.479-3.085-3.041-4.569-4.614 1.86.11 3.737.245 5.572.312.29 1.902.478 3.813.624 5.726zm-54.229 50.26c-.108-4.912-.289-9.81-.471-14.701 3.081 4.503 6.923 8.693 10.477 12.507.812.871 1.633 1.729 2.499 2.522a314.361 314.361 0 0 1-12.505-.328zm33.281.103a31.338 31.338 0 0 1-.228-.281c-2.737-3.484-5.936-6.114-9.275-9.002-8.026-6.941-15.148-14.907-21.189-23.623-.959-1.385-3.178-.147-2.288 1.337 5.205 8.684 11.762 16.238 18.938 23.349 2.83 2.804 5.655 5.387 8.206 8.306-2.515.039-5.03.093-7.544.111 0-.313-.026-.628-.103-.941-.321-1.286-1.844-1.503-2.747-.895-.535-.406-1.071-.809-1.589-1.235-2.34-1.929-4.47-4.124-6.567-6.309-3.296-3.436-6.908-7.079-9.569-11.124-.338-9.475-.554-18.939-.205-28.447 14.252 17.809 36.896 29.04 48.649 48.561-4.83.043-9.66.106-14.489.193zm20.439-25.166c-.506 6.888-2.038 14.476-2.109 21.722-3.859-7.744-13.097-14.37-18.746-19.3-11.306-9.865-24.217-19.072-33.506-31.049.031-.51.037-1.019.071-1.529a60.496 60.496 0 0 1 3.453-.842c5.926 8.613 15.138 15.801 22.663 22.751 5.601 5.173 12.493 14.064 19.909 16.7 1.465.52 2.583-1.27 1.909-2.484-3.489-6.297-12.21-11.242-17.534-15.837-8.059-6.955-16.095-14.027-23.401-21.784 2.695-.427 5.432-.655 8.182-.811-1.292 2.458 10.631 12.868 11.837 14.057a540.16 540.16 0 0 0 14.338 13.652c2.615 2.396 6.826 7.699 10.676 7.814 1.059.032 2.185-1.194 1.731-2.272-1.219-2.892-5.031-4.795-7.389-6.72-4.236-3.459-8.351-7.069-12.446-10.693-5.612-4.966-12.392-12.352-18.241-15.078.519.242.88-.413.44-.752-.023-.022-.053-.032-.078-.052 4.766-.227 9.594-.12 14.425.124 3.461 4.952 7.407 9.536 11.647 13.86 3.342 3.409 7.84 8.241 12.677 10.947a459.275 459.275 0 0 1-.508 7.576zm.74-12.904c-3.091-2.146-6.224-4.25-9.065-6.787a110.755 110.755 0 0 1-11.982-12.488c3.523.218 7.038.479 10.528.717 1.717 2.082 3.537 4.086 5.367 6.053 1.636 1.758 3.345 3.658 5.173 5.413.054 2.361.053 4.726-.021 7.092zm94.302 9.172c-.679-7.404-1.012-17.009-5.036-23.505a6.824 6.824 0 0 0 1.107-.594c1.572-1.075 2.471-3.799.67-5.202-3.143-2.448-7.466-2.146-11.281-2.602-8.94-1.068-17.877-2.1-26.855-2.784-2.359-.181-5.461-.52-8.813-.737-.105-.139-.218-.269-.323-.408-.604-.804-1.782-.444-1.993.276-4.158-.175-8.553-.071-12.379.83-.475-.213-1.035-.044-1.307.325-3.523 1.044-6.44 2.87-8.036 5.939-6.044 11.625-2.66 30.206-1.508 42.553.221 2.373 1.246 24.836 7.667 19.933.401 1.004 1.303 1.808 2.746 1.863 21.287.817 42.532-.378 63.635-3.232 1.807-.244 3.084-2.368 3.075-4.039-.05-9.563-.497-19.09-1.369-28.616zm-11.619-22.525c-.062 2.885.295 5.829.792 8.784-.171-.178-.348-.356-.513-.531-3.111-3.312-6.27-6.493-9.741-9.391 3.19.579 6.491 1.071 9.462 1.138zm-13.25-1.861c-.091.382-.031.79.318 1.094 3.588 3.127 6.896 6.534 10.06 10.085 1.765 1.98 3.308 4.359 4.993 6.562.349 1.837.674 3.663.905 5.47-2.973-2.666-5.736-5.578-8.503-8.451-5.102-5.294-9.948-10.854-15.123-16.079 1.929.223 4.512.754 7.35 1.319zm-10.373-1.68c6.625 7.067 12.436 14.86 18.744 22.203 1.76 2.048 4.98 6.594 8.465 9.065.185 2.282.41 4.562.532 6.848-11.389-13.457-24.383-25.581-35.883-39.058 3.191.319 6.06.683 8.142.942zm-18.123 55.109c-1.263-.555-2.372-1.83-3.292-2.744-2.922-2.903-5.56-6.125-8.22-9.267-.242-.285-.614-.233-.871-.038-.582-.648-.931-1.256-.935-2.272 0-.067-.105-.067-.104 0 .005 1.138.32 1.666.974 2.363-.197.202-.305.485-.104.749 2.944 3.884 5.949 7.726 9.167 11.388-2.865.154-5.73.32-8.594.458-.386.019-.7.129-1.011.242.617-5.738-1.644-15.196-1.869-18.458-.194-2.806-.422-5.7-.608-8.636 4.376 6.472 10.21 12.174 15.604 17.579 1.675 1.677 4.84 5.428 8.223 8.107-2.787.185-5.572.37-8.36.529zm15.29-1.017c-11.759-7.885-23.819-18.853-31.043-31.077-.092-2.688-.072-5.376.032-8.046 6.371 6.562 12.417 13.455 18.46 20.305 5.091 5.771 10.083 13.128 16.061 18.52-1.17.091-2.338.211-3.51.298zm8.835-.753c-4.735-6.782-11.516-12.657-17.067-18.646-7.306-7.877-14.694-15.694-22.604-22.97.269-3.268.745-6.48 1.573-9.561 7.835 9.54 16.217 18.712 24.384 27.928 4.945 5.581 9.915 11.14 14.979 16.614 1.707 1.845 3.944 4.887 6.67 5.339 1.384.229 2.907-1.532 1.544-2.651-7.988-6.556-15.128-16.019-22.282-23.566-8.005-8.446-15.887-17.009-23.848-25.494.966-.66 2.393-1.104 4.071-1.408 8.153 11.227 17.488 21.739 26.657 32.051 4.481 5.04 12.065 15.682 19.903 20.991-4.655.506-9.315.97-13.98 1.373zm22.096-2.311c-10.261-6.232-18.89-16.555-27.083-25.03-8.531-8.825-16.944-17.92-24.747-27.449 3.561-.285 7.822-.128 11.904.186 5.4 7.206 11.256 14.074 17.141 20.882 6.61 7.649 13.535 17.119 22.253 22.348.12.072.235.1.351.135.119 2.973.211 5.947.257 8.922a.496.496 0 0 0-.076.006z"/></svg>