<svg xmlns="http://www.w3.org/2000/svg" width="35.914" height="18.234" viewBox="0 0 35.914286 18.233619"><g style="line-height:200%"><path d="M7.046 18.037c-.374.131-.873.197-1.528.197C2.182 18.234 0 15.676 0 13.15c0-2.394 2.151-5.412 7.513-5.412 6.298 0 14.092 5.543 20.077 7.248 1.466-1.541 2.307-3.804 2.307-6.297 0-4.984-3.398-8.264-7.295-8.264-3.585 0-6.141 2.296-6.141 5.411 0 .951.25 1.837.717 2.722l-.156.131c-.655-.885-.935-1.77-.935-2.787C16.087 2.951 18.83 0 22.228 0c5.207 0 7.981 4.329 7.981 8.723 0 2.624-.78 4.821-2.12 6.428.842.23 1.684.328 2.525.328 3.024 0 4.178-1.213 5.113-2l.187.163c-.904 1.28-3.46 2.362-6.11 2.362-.81 0-1.59-.066-2.37-.197-1.527 1.476-3.647 2.295-6.048 2.295-7.606 0-11.036-5.312-15.057-5.312-1.216 0-2.307.393-3.024 1.476l-.219-.197c.967-1.312 2.463-1.804 4.053-1.804 5.05 0 8.48 4.985 15.276 4.985 1.715 0 3.18-.525 4.396-1.542-7.14-1.41-13.561-7.149-20.389-7.149C3.398 8.56.5 9.642.5 13.282c0 2.754 2.182 4.59 5.05 4.59.53 0 .904-.032 1.497-.196v.36z" style="line-height:129.99999523%;-inkscape-font-specification:'Ambassador Script Flourishes'" font-size="31.975" font-family="Ambassador Script Flourishes" font-weight="400" letter-spacing="0" word-spacing="0"/></g></svg>