<svg xmlns="http://www.w3.org/2000/svg" width="33.445" height="18.234" viewBox="0 0 33.444906 18.233999"><g style="line-height:200%"><path d="M26.708 16.353c.548.152.894.182 1.384.182 2.653 0 4.672-1.699 4.672-4.248 0-3.367-2.682-4.368-5.48-4.368-6.374 0-12.286 5.309-18.891 6.614 1.125.94 2.48 1.426 4.096 1.426 6.287 0 9.46-4.612 14.132-4.612 1.471 0 2.855.455 3.75 1.669l-.202.182c-.664-1.002-1.673-1.366-2.798-1.366-3.75 0-6.893 4.915-13.93 4.915-2.28 0-4.154-.758-5.625-2.123a13.04 13.04 0 0 1-2.163.182C3.23 14.806.75 13.804 0 12.62l.173-.151c.779.758 1.961 1.85 4.73 1.85a8.79 8.79 0 0 0 2.336-.303C6 12.53 5.28 10.497 5.28 8.07 5.278 4.005 7.844 0 12.661 0c3.143 0 5.681 2.73 5.681 5.461 0 .94-.26 1.76-.865 2.579l-.144-.121c.433-.82.663-1.639.663-2.519 0-2.882-2.365-5.006-5.682-5.006-3.605 0-6.749 3.034-6.749 7.646 0 2.306.78 4.4 2.135 5.825 5.537-1.547 12.748-6.705 18.574-6.705 4.96 0 6.95 2.791 6.95 5.006 0 2.336-2.047 4.703-5.104 4.703-.606 0-1.067-.061-1.413-.182v-.334z" style="line-height:129.99999523%;-inkscape-font-specification:'Ambassador Script Flourishes'" font-size="29.581" font-family="Ambassador Script Flourishes" font-weight="400" letter-spacing="0" word-spacing="0"/></g></svg>