<svg xmlns="http://www.w3.org/2000/svg" width="121.576" height="133.744" viewBox="0 0 113.9775 125.385"><path d="M12.115 123.454l-.449-1.176H7.845l-.445 1.2c-.179.472-.326.793-.454.955-.12.167-.325.245-.606.245a.89.89 0 0 1-.632-.263c-.188-.176-.278-.372-.278-.6 0-.122.019-.257.064-.392.046-.14.112-.33.214-.574l2.4-6.096.24-.63c.103-.25.207-.448.31-.612.115-.167.25-.292.432-.396a1.35 1.35 0 0 1 .659-.15c.264 0 .485.053.656.15.181.104.326.229.435.388.108.163.2.328.273.513.075.179.17.414.288.722l2.455 6.06c.193.465.287.795.287 1.01 0 .215-.093.415-.275.598a.88.88 0 0 1-.655.272.888.888 0 0 1-.385-.08l-.272-.215a2.7 2.7 0 0 1-.233-.424c-.08-.19-.148-.361-.208-.505zm-3.767-2.606h2.805l-1.42-3.88-1.385 3.88m18.683 2.502c.278.187.579.372.91.551.328.173.544.32.654.425.109.1.159.25.159.441 0 .14-.064.272-.192.41a.613.613 0 0 1-.456.208c-.141 0-.322-.051-.529-.144a5.574 5.574 0 0 1-.732-.41c-.278-.176-.586-.39-.916-.632-.619.32-1.38.478-2.279.478-.734 0-1.389-.117-1.97-.348a3.851 3.851 0 0 1-1.452-1.003 4.351 4.351 0 0 1-.89-1.562 6.269 6.269 0 0 1-.298-1.967c0-.725.107-1.387.309-1.99a4.355 4.355 0 0 1 .903-1.535c.394-.426.87-.745 1.437-.972.56-.226 1.203-.335 1.921-.335.973 0 1.805.199 2.506.595a3.82 3.82 0 0 1 1.587 1.689c.357.722.537 1.577.537 2.556 0 1.494-.402 2.677-1.209 3.545zm-1.495-1.035c.266-.306.463-.669.583-1.08.127-.413.196-.899.196-1.438 0-.69-.115-1.283-.336-1.786-.223-.51-.539-.889-.954-1.144-.41-.262-.884-.386-1.415-.386-.384 0-.734.066-1.06.214a2.352 2.352 0 0 0-.831.62c-.23.272-.412.624-.553 1.046a4.994 4.994 0 0 0-.196 1.436c0 1.08.249 1.912.756 2.495.505.583 1.138.875 1.909.875.315 0 .639-.066.971-.202a5.053 5.053 0 0 0-.751-.445 5.507 5.507 0 0 1-.62-.346.422.422 0 0 1-.162-.349l.16-.336.353-.15c.388 0 1.037.323 1.95.976m8.284-1.678v-4.52c0-.387.086-.67.256-.866.171-.194.401-.286.685-.286.298 0 .526.092.699.286.174.195.26.479.26.865v4.619c0 .529.061.968.174 1.324.126.349.328.621.63.816.296.194.716.293 1.255.293.746 0 1.266-.194 1.575-.593.308-.393.461-.993.461-1.801v-4.658c0-.386.085-.68.258-.865.167-.193.4-.286.684-.286.292 0 .52.093.69.286.18.185.273.479.273.865v4.522c0 .73-.073 1.344-.22 1.836a2.81 2.81 0 0 1-.806 1.295 3.193 3.193 0 0 1-1.19.69c-.454.15-.983.219-1.594.219-.716 0-1.34-.078-1.864-.232-.516-.158-.941-.4-1.271-.723-.334-.327-.576-.747-.726-1.257-.152-.512-.229-1.116-.229-1.828m19.905 2.816l-.455-1.176h-3.816l-.448 1.2c-.173.472-.323.793-.45.955-.121.167-.326.245-.601.245a.896.896 0 0 1-.639-.263c-.181-.176-.276-.372-.276-.6 0-.122.023-.257.065-.392.041-.14.11-.33.211-.574l2.4-6.096c.07-.174.15-.387.244-.63.1-.25.199-.448.306-.612a1.36 1.36 0 0 1 .428-.396c.181-.097.401-.15.664-.15.265 0 .485.053.66.15.182.104.322.229.426.388.115.163.205.328.276.513.076.179.174.414.29.722l2.454 6.06c.194.465.29.795.29 1.01 0 .215-.095.415-.275.598a.89.89 0 0 1-.655.272.844.844 0 0 1-.381-.08l-.27-.215a1.979 1.979 0 0 1-.242-.424l-.206-.505zm-3.771-2.606h2.805l-1.413-3.88-1.392 3.88m13.69-.349h-.664v3.019c0 .398-.092.685-.265.875a.884.884 0 0 1-.685.285c-.306 0-.541-.095-.705-.295-.165-.2-.249-.485-.249-.865v-7.228c0-.407.087-.705.275-.886.177-.185.479-.28.892-.28h3.09c.43 0 .796.022 1.096.055.306.04.574.11.817.225.3.119.56.297.789.522.227.234.395.504.511.811.115.307.176.628.176.968 0 .702-.2 1.262-.592 1.684-.394.416-.991.711-1.794.882.335.186.659.45.965.799.309.35.58.722.82 1.121.245.393.434.748.566 1.071.138.316.204.536.204.654l-.124.372a.834.834 0 0 1-.317.283 1.041 1.041 0 0 1-.474.107.89.89 0 0 1-.54-.155 1.378 1.378 0 0 1-.377-.38c-.104-.15-.244-.38-.42-.678l-.763-1.265c-.276-.467-.52-.82-.742-1.071a1.74 1.74 0 0 0-.652-.491c-.222-.095-.503-.14-.838-.14zm1.089-3.945H62.98v2.581h1.7c.458 0 .844-.037 1.156-.117a1.37 1.37 0 0 0 .71-.4c.165-.19.247-.455.247-.788a1.16 1.16 0 0 0-.2-.684 1.144 1.144 0 0 0-.545-.451c-.225-.092-.662-.141-1.315-.141m9.806 6.963v-7.4c0-.387.083-.67.26-.866a.885.885 0 0 1 .681-.286c.291 0 .514.092.694.286.178.185.267.479.267.865v7.401c0 .387-.089.68-.267.874a.897.897 0 0 1-.694.286.901.901 0 0 1-.681-.286c-.177-.195-.26-.487-.26-.874m7.977-2.88v-4.52c0-.387.088-.67.257-.866a.877.877 0 0 1 .685-.286c.297 0 .528.092.702.286.173.195.26.479.26.865v4.619c0 .529.063.968.173 1.324.125.349.332.621.63.816.3.194.718.293 1.253.293.743 0 1.27-.194 1.578-.593.309-.393.459-.993.459-1.801v-4.658c0-.386.09-.68.257-.865.175-.193.404-.286.688-.286.284 0 .518.093.69.286.178.185.268.479.268.865v4.522c0 .73-.067 1.344-.211 1.836a2.89 2.89 0 0 1-.811 1.295 3.16 3.16 0 0 1-1.197.69c-.45.15-.98.219-1.583.219-.727 0-1.343-.078-1.865-.232-.52-.158-.945-.4-1.277-.723-.328-.327-.572-.747-.725-1.257-.15-.512-.23-1.116-.23-1.828m17.067 2.463l-1.509-5.981v6.481c0 .358-.08.626-.239.805a.805.805 0 0 1-.638.271.815.815 0 0 1-.624-.262c-.163-.184-.243-.456-.243-.814v-7.435c0-.41.101-.679.323-.826.206-.144.495-.216.859-.216h.592c.352 0 .609.031.77.101.154.057.28.179.356.337.075.168.167.448.263.822l1.362 5.143 1.367-5.143c.094-.374.184-.654.266-.822a.598.598 0 0 1 .352-.337c.159-.07.422-.101.774-.101h.59c.36 0 .649.072.863.216.213.147.32.416.32.826v7.435c0 .358-.083.626-.244.805-.154.183-.37.271-.639.271a.788.788 0 0 1-.621-.27c-.165-.18-.245-.448-.245-.806v-6.481l-1.505 5.981c-.101.388-.18.675-.245.858a1.16 1.16 0 0 1-.339.496c-.165.151-.399.222-.694.222a1.03 1.03 0 0 1-.562-.146.974.974 0 0 1-.356-.364 1.912 1.912 0 0 1-.206-.497c-.048-.181-.1-.373-.148-.569M69.488 71.016v7.178h10.957v-7.178c0-1.028.229-1.8.688-2.31.468-.511 1.073-.768 1.828-.768.763 0 1.374.257 1.845.768.48.497.723 1.27.723 2.31v19.739c0 1.04-.243 1.818-.723 2.328-.478.513-1.096.766-1.845.766-.765 0-1.377-.253-1.828-.766-.46-.525-.688-1.297-.688-2.328v-8.42H69.488v8.42c0 1.04-.238 1.818-.717 2.328-.476.513-1.095.766-1.845.766-.766 0-1.373-.253-1.828-.766-.458-.525-.688-1.297-.688-2.328V71.016c0-1.028.223-1.8.67-2.31.456-.511 1.066-.768 1.846-.768.765 0 1.38.257 1.845.768.479.497.717 1.27.717 2.31m39.892 19.297c.74.503 1.554.993 2.429 1.473.876.463 1.458.844 1.747 1.129.284.273.421.663.421 1.176 0 .364-.168.73-.507 1.095-.335.364-.734.545-1.219.545-.387 0-.861-.123-1.419-.375-.54-.248-1.198-.618-1.943-1.095a58.35 58.35 0 0 1-2.449-1.675c-1.65.843-3.68 1.263-6.086 1.263-1.947 0-3.699-.301-5.245-.919-1.537-.63-2.833-1.522-3.879-2.689-1.049-1.17-1.845-2.565-2.378-4.167-.525-1.609-.785-3.356-.785-5.246 0-1.927.272-3.694.82-5.3.56-1.61 1.36-2.978 2.407-4.107 1.047-1.126 2.327-1.987 3.83-2.58 1.505-.602 3.217-.903 5.128-.903 2.598 0 4.827.528 6.688 1.586 1.865 1.051 3.281 2.55 4.237 4.496.955 1.939 1.435 4.218 1.435 6.838 0 3.977-1.08 7.13-3.232 9.455zm-3.982-2.77c.707-.81 1.223-1.764 1.558-2.873.341-1.106.509-2.386.509-3.842 0-1.84-.294-3.428-.886-4.772-.595-1.346-1.444-2.358-2.548-3.041-1.095-.699-2.354-1.045-3.779-1.045a6.879 6.879 0 0 0-2.817.58 6.115 6.115 0 0 0-2.223 1.658c-.617.733-1.106 1.666-1.472 2.808-.35 1.127-.531 2.397-.531 3.812 0 2.882.676 5.106 2.019 6.663 1.346 1.552 3.04 2.329 5.095 2.329.84 0 1.707-.177 2.598-.535-.536-.396-1.206-.794-2.016-1.196-.799-.395-1.35-.701-1.647-.924-.293-.211-.44-.522-.44-.921 0-.339.14-.644.43-.91.278-.255.598-.386.933-.386 1.038 0 2.775.865 5.217 2.596M4.764 87.116v3.896c0 .95-.223 1.663-.665 2.137-.442.466-1.008.7-1.693.7-.675 0-1.225-.234-1.657-.712-.432-.48-.648-1.19-.648-2.125V78.02c0-2.091.758-3.145 2.271-3.145.774 0 1.332.246 1.678.736.341.491.525 1.211.562 2.17.558-.959 1.125-1.679 1.708-2.17.592-.49 1.38-.736 2.362-.736.977 0 1.928.246 2.852.736.927.491 1.383 1.141 1.383 1.945 0 .575-.196 1.043-.597 1.42-.385.368-.809.551-1.264.551-.169 0-.586-.103-1.247-.308-.649-.213-1.227-.327-1.729-.327-.68 0-1.238.185-1.673.547-.437.358-.77.886-1.008 1.591-.238.711-.408 1.551-.494 2.532-.098.965-.141 2.153-.141 3.554m21.102-1.606H16.74c.013 1.063.221 1.99.631 2.805.425.814.975 1.415 1.659 1.828a4.479 4.479 0 0 0 2.293.612c.554 0 1.067-.06 1.522-.185a5.362 5.362 0 0 0 1.346-.615c.432-.282.835-.59 1.201-.909.364-.318.838-.748 1.415-1.297.24-.205.584-.306 1.025-.306.483 0 .868.13 1.165.392.298.263.443.635.443 1.11 0 .42-.16.918-.492 1.489-.332.555-.835 1.104-1.505 1.624-.663.515-1.505.938-2.515 1.285-1.002.336-2.16.506-3.47.506-2.997 0-5.328-.853-6.992-2.565-1.664-1.705-2.495-4.031-2.495-6.955 0-1.378.205-2.654.612-3.826.415-1.185 1.012-2.202 1.8-3.048.785-.841 1.753-1.485 2.902-1.927 1.15-.457 2.426-.684 3.83-.684 1.826 0 3.387.387 4.685 1.164 1.311.76 2.293 1.75 2.94 2.968.65 1.222.973 2.462.973 3.733 0 1.17-.33 1.937-1.007 2.29-.671.335-1.618.511-2.839.511zm-9.127-2.651H25.2c-.116-1.595-.546-2.788-1.3-3.57-.74-.803-1.719-1.196-2.94-1.196-1.164 0-2.117.402-2.869 1.216-.742.795-1.192 1.975-1.353 3.55M44.92 85.51h-9.127c.013 1.063.22 1.99.635 2.805.413.814.97 1.415 1.657 1.828a4.466 4.466 0 0 0 2.288.612 5.78 5.78 0 0 0 1.525-.185c.46-.136.91-.344 1.352-.615.428-.282.829-.59 1.193-.909a49.15 49.15 0 0 0 1.418-1.297c.239-.205.583-.306 1.029-.306.476 0 .863.13 1.16.392.295.263.443.635.443 1.11 0 .42-.163.918-.495 1.489-.332.555-.83 1.104-1.507 1.624-.656.515-1.493.938-2.513 1.285-1.003.336-2.155.506-3.464.506-3.003 0-5.33-.853-6.994-2.565-1.661-1.705-2.496-4.031-2.496-6.955 0-1.378.202-2.654.615-3.826.407-1.185 1.009-2.202 1.794-3.048.788-.841 1.758-1.485 2.91-1.927 1.147-.457 2.422-.684 3.83-.684 1.82 0 3.378.387 4.68 1.164 1.313.76 2.29 1.75 2.94 2.968.65 1.222.976 2.462.976 3.733 0 1.17-.34 1.937-1.01 2.29-.671.335-1.618.511-2.839.511zm-9.127-2.651h8.46c-.11-1.595-.544-2.788-1.294-3.57-.745-.803-1.725-1.196-2.941-1.196-1.167 0-2.123.402-2.872 1.216-.745.795-1.19 1.975-1.353 3.55m14.782-7.572h1.109v-1.406c0-1.457.182-2.614.546-3.465a3.54 3.54 0 0 1 1.877-1.884c.892-.398 2.103-.595 3.648-.595 2.72 0 4.084.664 4.084 2 0 .433-.142.802-.425 1.11-.285.305-.623.46-1.017.46-.176 0-.488-.033-.932-.106a8.253 8.253 0 0 0-1.133-.096c-.843 0-1.383.246-1.623.746-.243.493-.358 1.206-.358 2.123v1.113h1.144c1.781 0 2.666.535 2.666 1.61 0 .76-.237 1.245-.716 1.447-.468.207-1.115.308-1.95.308h-1.144v12.36c0 .924-.22 1.632-.667 2.125-.433.478-.997.712-1.69.712-.662 0-1.218-.234-1.663-.712-.431-.493-.647-1.198-.647-2.125v-12.36h-1.285c-.694 0-1.228-.15-1.604-.458a1.55 1.55 0 0 1-.565-1.234c0-1.114.783-1.673 2.345-1.673" fill-rule="evenodd"/><path d="M6.787 104.399v2.512c0 .605-.23.908-.695.908-.448 0-.69-.249-.707-.748-.63.537-1.318.8-2.065.8-1.024 0-1.853-.403-2.499-1.203-.549-.683-.821-1.54-.821-2.576 0-1.104.317-2.017.945-2.734.665-.77 1.56-1.152 2.681-1.152 1.079 0 1.915.329 2.524.981.282.302.419.587.419.853a.742.742 0 0 1-.255.584.757.757 0 0 1-.503.187c-.247 0-.499-.165-.75-.497-.355-.474-.835-.713-1.444-.713-.618 0-1.1.245-1.442.725-.324.448-.49 1.036-.49 1.775 0 .83.207 1.463.624 1.899.331.349.747.519 1.247.519.479 0 .875-.133 1.188-.409.317-.27.528-.65.641-1.139h-.998c-.562 0-.842-.214-.842-.636 0-.216.064-.378.196-.496.136-.113.335-.177.613-.177H6.03c.269 0 .463.053.581.154.118.095.175.291.175.583m4.439-2.645h-1.184v1.95h1.163c.457 0 .792-.061 1-.186.283-.175.425-.458.425-.84 0-.254-.07-.464-.197-.612-.18-.213-.583-.312-1.207-.312zm-1.743-1.375h2.067c.943 0 1.625.171 2.056.52.419.349.635.832.635 1.461 0 1.023-.46 1.64-1.381 1.838.171.04.303.088.407.137.269.134.46.423.581.85.005.02.064.388.173 1.095.012.089.044.221.09.381l.079.239.051.244a.613.613 0 0 1-.19.456c-.143.148-.334.219-.57.219-.375 0-.646-.153-.82-.459-.104-.187-.183-.482-.24-.886a9.973 9.973 0 0 0-.073-.515c-.065-.401-.18-.659-.363-.785-.144-.113-.413-.159-.812-.159h-1.13v1.785c0 .324-.056.565-.166.721-.147.197-.364.298-.645.298l-.332-.049c-.332-.125-.504-.451-.504-.97v-5.326c0-.396.082-.676.244-.846.16-.165.44-.25.843-.25m10.65 1.347H17.25v1.49h2.601c.204 0 .356.017.458.064.265.103.395.297.395.591 0 .301-.13.497-.395.605-.088.031-.24.046-.445.046H17.25v1.865h2.916c.388 0 .645.116.766.353l.087.321c0 .3-.128.5-.387.606-.096.045-.255.06-.466.06h-3.682c-.179 0-.307-.009-.37-.031-.334-.096-.503-.386-.503-.873v-5.582c0-.29.061-.511.18-.65.126-.141.351-.211.684-.211h3.657c.223 0 .384.023.49.07.235.115.35.317.35.615a.659.659 0 0 1-.09.372c-.123.194-.375.289-.75.289m5.404 3.24l-.54-1.796a14.358 14.358 0 0 1-.249-1.138c-.03.208-.1.536-.207.981l-.581 1.953h1.577zm.638 2.112l-.243-.806h-2.359l-.207.679c-.09.286-.178.485-.26.597-.138.183-.334.272-.59.272a1 1 0 0 1-.553-.153.696.696 0 0 1-.335-.625c0-.15.042-.325.117-.54l1.79-5.105c.142-.414.275-.685.391-.809.167-.18.435-.275.791-.275.361 0 .629.08.803.232.116.115.228.311.332.597l1.894 5.318c.079.233.122.432.122.595 0 .222-.083.41-.243.553a.908.908 0 0 1-.618.212c-.407 0-.685-.248-.832-.742m3.093-6.685h4.327c.376 0 .627.112.76.337l.081.323c0 .298-.13.51-.384.624-.09.043-.252.064-.489.064h-1.317v5.06c0 .181-.009.309-.025.386-.073.423-.33.633-.771.633-.253 0-.457-.072-.608-.225-.152-.155-.23-.421-.23-.809v-5.045H29.3c-.573 0-.864-.217-.864-.663 0-.146.034-.27.098-.374.123-.21.367-.31.733-.31m12.778 4.148h-1.287v1.857h1.033c.228 0 .434-.012.639-.034.615-.059.928-.37.928-.924l-.065-.342a.785.785 0 0 0-.53-.485c-.16-.047-.405-.072-.718-.072zm.156-2.787h-1.443v1.476h1.403c.307 0 .527-.037.67-.095.257-.111.387-.324.387-.651 0-.493-.34-.73-1.017-.73zm-1.952-1.361h2.117c.789 0 1.389.15 1.797.453.442.333.665.795.665 1.382 0 .713-.34 1.236-1.027 1.562.812.401 1.212.996 1.212 1.774 0 .479-.123.895-.38 1.245a2.03 2.03 0 0 1-1.157.791c-.307.084-.757.126-1.338.126h-1.953c-.381 0-.655-.081-.822-.258-.168-.177-.254-.478-.254-.912v-5.123c0-.41.104-.695.306-.858.155-.126.433-.182.834-.182m9.456 4.572l-.543-1.796a15.99 15.99 0 0 1-.25-1.138c-.033.208-.102.536-.206.981l-.581 1.953h1.58zm.635 2.112l-.241-.806H47.74l-.209.679c-.088.286-.176.485-.26.597-.137.183-.333.272-.59.272a.99.99 0 0 1-.553-.153.695.695 0 0 1-.334-.625c0-.15.04-.325.117-.54l1.787-5.105c.146-.414.278-.685.392-.809.17-.18.433-.275.794-.275.359 0 .624.08.8.232.116.115.225.311.332.597l1.89 5.318c.085.233.125.432.125.595 0 .222-.08.41-.245.553-.158.143-.37.212-.617.212-.41 0-.685-.248-.83-.742m5.662-5.323h-1.184v1.95h1.164c.459 0 .786-.061 1-.186.285-.175.428-.458.428-.84 0-.254-.068-.464-.198-.612-.181-.213-.582-.312-1.21-.312zm-1.744-1.375h2.07c.94 0 1.624.171 2.052.52.425.349.638.832.638 1.461 0 1.023-.46 1.64-1.38 1.838.17.04.308.088.403.137.27.134.464.423.584.85.006.02.063.388.177 1.095.011.089.04.221.08.381l.081.239.055.244a.617.617 0 0 1-.188.456c-.144.148-.332.219-.569.219-.378 0-.65-.153-.823-.459-.107-.187-.185-.482-.24-.886a9.973 9.973 0 0 0-.072-.515c-.064-.401-.184-.659-.361-.785-.144-.113-.422-.159-.814-.159h-1.133v1.785c0 .324-.055.565-.167.721-.144.197-.361.298-.641.298l-.335-.049c-.33-.125-.498-.451-.498-.97v-5.326c0-.396.079-.676.238-.846.162-.165.438-.25.843-.25m8.977 1.376H62.05v1.95h1.169c.455 0 .788-.061.995-.186.285-.175.426-.458.426-.84 0-.254-.064-.464-.196-.612-.182-.213-.58-.312-1.21-.312zm-1.742-1.375h2.068c.939 0 1.624.171 2.049.52.432.349.643.832.643 1.461 0 1.023-.462 1.64-1.383 1.838.171.04.308.088.405.137.271.134.467.423.58.85.008.02.063.388.181 1.095.012.089.041.221.081.381l.084.239.052.244a.62.62 0 0 1-.187.456.766.766 0 0 1-.568.219c-.38 0-.652-.153-.825-.459-.103-.187-.185-.482-.24-.886a30.56 30.56 0 0 0-.07-.515c-.062-.401-.187-.659-.368-.785-.143-.113-.413-.159-.809-.159H62.05v1.785c0 .324-.053.565-.165.721-.146.197-.361.298-.646.298l-.33-.049c-.33-.125-.498-.451-.498-.97v-5.326c0-.396.079-.676.24-.846.159-.165.44-.25.841-.25m6.133 6.298v-5.341c0-.385.089-.664.256-.831a.805.805 0 0 1 .573-.218c.274 0 .481.102.64.289.125.168.189.431.189.793v5.293c0 .327-.03.56-.104.713-.123.28-.362.414-.712.414-.282 0-.49-.087-.63-.252-.14-.171-.212-.458-.212-.86m7.855-4.951h-2.879v1.49h2.602c.197 0 .35.017.456.064.261.103.396.297.396.591 0 .301-.135.497-.396.605a1.512 1.512 0 0 1-.441.046H72.6v1.865h2.912c.39 0 .643.116.765.353l.09.321c0 .3-.13.5-.385.606-.095.045-.258.06-.47.06H71.83c-.176 0-.301-.009-.372-.031-.328-.096-.495-.386-.495-.873v-5.582c0-.29.058-.511.18-.65.118-.141.348-.211.678-.211h3.659c.226 0 .385.023.489.07.236.115.355.317.355.615a.669.669 0 0 1-.095.372c-.121.194-.373.289-.749.289m4.905.029h-1.184v1.95h1.164c.461 0 .791-.061.999-.186.286-.175.425-.458.425-.84 0-.254-.064-.464-.192-.612-.182-.213-.586-.312-1.212-.312zm-1.745-1.375h2.071c.941 0 1.625.171 2.051.52.427.349.64.832.64 1.461 0 1.023-.462 1.64-1.386 1.838.179.04.31.088.41.137.269.134.465.423.581.85.01.02.064.388.177 1.095.013.089.042.221.086.381l.079.239.053.244a.613.613 0 0 1-.19.456c-.142.148-.337.219-.568.219-.377 0-.645-.153-.824-.459-.104-.187-.179-.482-.236-.886-.015-.11-.039-.281-.075-.515-.062-.401-.18-.659-.364-.785-.148-.113-.414-.159-.81-.159h-1.134v1.785c0 .324-.055.565-.166.721-.144.197-.363.298-.643.298l-.327-.049c-.34-.125-.503-.451-.503-.97v-5.326c0-.396.08-.676.24-.846.153-.165.437-.25.838-.25m12.538 1.376H89.99v1.95h1.162c.462 0 .788-.061 1.002-.186.283-.175.424-.458.424-.84 0-.254-.061-.464-.199-.612-.18-.213-.581-.312-1.203-.312zm-1.75-1.375h2.068c.947 0 1.632.171 2.054.52.426.349.64.832.64 1.461 0 1.023-.461 1.64-1.38 1.838.171.04.304.088.405.137.269.134.461.423.58.85.006.02.066.388.179 1.095.011.089.035.221.078.381l.087.239.051.244a.6.6 0 0 1-.19.456c-.139.148-.333.219-.569.219-.372 0-.647-.153-.821-.459-.104-.187-.181-.482-.242-.886a7.563 7.563 0 0 0-.072-.515c-.059-.401-.182-.659-.361-.785-.145-.113-.414-.159-.809-.159h-1.135v1.785c0 .324-.052.565-.165.721-.147.197-.361.298-.646.298l-.333-.049c-.337-.125-.495-.451-.495-.97v-5.326c0-.396.074-.676.235-.846.162-.165.442-.25.84-.25m10.658 1.347h-2.879v1.49H99.8c.205 0 .357.017.462.064.263.103.392.297.392.591 0 .301-.129.497-.392.605a1.543 1.543 0 0 1-.448.046h-2.608v1.865h2.908c.39 0 .647.116.768.353l.087.321c0 .3-.129.5-.387.606-.097.045-.253.06-.468.06h-3.679a1.43 1.43 0 0 1-.373-.031c-.332-.096-.502-.386-.502-.873v-5.582c0-.29.064-.511.181-.65.119-.141.355-.211.683-.211h3.661c.22 0 .381.023.489.07.236.115.355.317.355.615a.659.659 0 0 1-.098.372c-.125.194-.375.289-.746.289m6.575 0h-2.877v1.49h2.6c.198 0 .352.017.456.064.26.103.397.297.397.591 0 .301-.137.497-.397.605-.088.031-.235.046-.445.046h-2.611v1.865h2.91c.386 0 .646.116.77.353l.08.321c0 .3-.127.5-.38.606-.1.045-.252.06-.47.06h-3.675c-.18 0-.31-.009-.38-.031-.33-.096-.495-.386-.495-.873v-5.582c0-.29.062-.511.18-.65.126-.141.347-.211.682-.211h3.655c.228 0 .386.023.49.07.234.115.355.317.355.615a.714.714 0 0 1-.091.372c-.13.194-.379.289-.754.289m6.415.015h-2.733v1.57h2.444c.401 0 .66.113.779.335l.072.318c0 .436-.3.658-.877.658h-2.418v2.14c0 .252-.026.445-.08.582-.126.303-.37.46-.732.46a.845.845 0 0 1-.436-.108c-.245-.141-.375-.445-.375-.887v-5.375c0-.42.115-.71.326-.864.154-.121.422-.176.797-.176h3.253c.225 0 .39.023.502.07.248.11.372.306.372.59a.658.658 0 0 1-.104.383c-.133.205-.395.304-.79.304M33.077 14.836l2.202 1.324C41.719 5.505 55.09 1.458 66.396 6.72c12.164 5.679 17.458 20.198 11.779 32.364-2.276 4.886-4.855 8.302-9.615 10.796l.051 2.75c5.266-2.75 9.376-7.063 11.895-12.458 6.273-13.458.428-29.507-13.021-35.784C54.991-1.44 40.2 3.058 33.077 14.836"/><path d="M64.498 6.332c-9.73 3.113-24.217 11.278-40.162 32.33 0 0 9.105 20.87 34.568 16.783-2.257-3.885-4.249-9.214-8.021-11.533l-.451-.25c-.57-.356-1.54-.457-2.584-.557-.995-.096-2.12-.212-2.594-.568-.649-.485-1.35-1.3-1.328-1.637.025-.276.117-.465.295-.566.455-.265 1.37-.035 1.972.133l.453.11.63.193c.672.187 1.688.465 2.285.802.49.269.99.345 1.337.203.197-.082.439-.259.475-.677.053-.513-.155-1.013-.594-1.467-.852-.873-2.327-1.34-3.404-1.426h-.133c-.277-.016-.563-.04-.85-.062-.894-.068-1.8-.186-2.644-.541l-.467-.182c-.377-.135-1.504-.557-1.648-.791-1.15-.271-1.299-1.377-1.01-1.516.168-.083 1.964.425 2.16.436.263.022.537.103.768.176.21.057.386.11.543.119l.187-.008.342-.022c.369.03.758.208 1.174.4.444.207.925.43 1.414.47.187.013.367 0 .557-.05a.676.676 0 0 0 .498-.476c.248-.864-.86-2.529-1.287-3.031-.907-1.071-1.252-1.967-1.622-2.914-.333-.84-.67-1.711-1.42-2.725-.277-.416-.331-.849-.126-1.15.072-.11.276-.09.591-.043l.127.016c.804.096 1.448.497 1.844 1.146.294.486.401.908.514 1.36.118.484.248 1 .634 1.576l.473.59c.284.326.53.608.625.992.55 1.145 1.09 1.751 1.774 2.521l.386.436c.182.215.475 1.058.676 1.673l.418 1.122c.315.68.804 1.167 1.229 1.593.577.58 1.03 1.032 1.039 1.785-.03.747.925 2.554 1.595 3.01.245.174.443.167.553.133.954-.235-.656-7.83-1.59-8.394-.583-.35-.032-.898.475-1.37a38.733 38.733 0 0 0-.383-.828l-.465-.998c-.172-.385-.034-.924.283-1.053l.366-.076c.245-.033.535-.073.726-.26.833-.673 1.167-1.34 1.213-2.384.137-.37.362-.757.62-1.125l-6.63-.028c.843-7.238 4.896-14.401 15.328-19.392zm-4.697 21.436c.105.43.264.856.558 1.287.322.46-.12 1.033-.591 1.64-.35.443-.706.906-.803 1.383l-.223.647c-.175.383-.354.77-.164 1.382.093.295.047.476-.01.713-.063.234-.132.507-.037.893.273 1.141.295 1.666.076 2.781-.323 1.655.015 2.626.93 4.307.059.155-.023 1.022-.078 1.648-.159 1.733-.168 2.315.086 2.555.639.612 1.17.586 1.705.52.694-.104 1.199-.386 1.496-.844.695-1.058.143-2.78-.22-3.918-.12-.372-.23-.709-.237-.864-.039-.812-.29-1.616-.533-2.39-.315-.994-.61-1.925-.48-2.85.243-.294.706-.327 1.24-.35.546-.03 1.158-.054 1.558-.425l.254-.23c.285-.246.605-.523.625-.99l.018-.768c.01-1.232.03-3.534 1.03-3.72.325-.063.58-.063.792-.042.154.011.274.028.387.043l.267.037c.185.009.366-.005.53-.139l.21-.172c.203-.136.3-.217.588-.746.172-.308.22-.348.272-.4l.361-.443.156-.233c.08-.124.143-.194.21-.271zm12.539.05c.05.079.095.158.12.239a.743.743 0 0 1-.136.7c-.584 1.456-.039 2.95-1.361 3.811l-1.443.57c-.86.57-2.598.49-2.5 1.874.07.996-.23 1.203-.686 1.513l-.57.45-.52.46c-.485.407-.942.786-1.057 1.54-.288 1.782.28 2.526.827 3.24.49.646.956 1.254.924 2.709l-.006.084 1.32 1.967c.033-.008 1.403 3.679 1.343 5.673 4.743-2.473 8.55-7.42 10.946-13.017a27.564 27.564 0 0 0 2.191-11.776zm-37.703 3.659a2.357 2.357 0 0 1 1.732.689c.939.941.905 2.496-.074 3.488-.988.988-2.554 1.026-3.492.073-.947-.937-.914-2.499.074-3.489a2.567 2.567 0 0 1 1.76-.761zm21.25 5.486l.023.728a6.112 6.112 0 0 0-.023-.728z"/><path d="M60.184 5.838s-18.352.859-32.032 12.195l2.05 10.975s8.45-12.095 29.982-23.17zm-22.086 7.998a1.45 1.45 0 0 1 1.062.42c.575.582.552 1.545-.05 2.148-.607.609-1.568.634-2.145.053-.581-.586-.564-1.54.049-2.154a1.58 1.58 0 0 1 1.084-.467zm26.996-4.927c3.272-1.689 7.209-3.159 11.935-4.332 0 0-5.214-.815-13.671 2.138l1.736 2.194"/></svg>