<svg xmlns="http://www.w3.org/2000/svg" viewBox="0 0 151.22051 100" height="100" width="151.22"><g style="line-height:125%" font-weight="400" font-size="50.52" font-family="Sans" letter-spacing="0" word-spacing="0" fill="#32cfff"><path style="-inkscape-font-specification:Beautylove" d="M50.944 48.146c-.202 0-.404 0-.606-.05-5.911-.304-7.83-5.306-9.902-10.61-2.072-5.406-4.193-10.963-10.71-11.923C40.234 24.452 45.79 15.004 45.79 8.033c0-4.092-1.97-6.618-5.153-6.618-2.728 0-8.841 8.689-12.024 14.852.354-3.536.859-6.77 1.566-9.346 1.112-.555 2.173-1.364 3.082-2.172 1.01-.96 2.02-2.223 1.768-2.93-.05-.202-.252-.404-.808-.404-3.031 0-5.002 2.425-6.366 6.163-1.06.253-2.02.202-2.778-.152-1.769-.858-2.476-3.283-2.173-7.274 0-.101-.05-.152-.151-.152-.05 0-.101.05-.101.101-.354 4.143.454 6.669 2.273 7.528.808.404 1.819.454 2.83.202-2.022 5.759-2.678 14.398-3.285 22.43-.707 9.6-1.313 17.885-4.092 17.885-.1 0-.151.05-.151.1 0 .102.05.152.151.152 5.254 0 6.416-11.266 7.376-22.734 4.294.455 6.568 5.052 8.993 9.902 2.88 5.86 6.163 12.428 13.54 12.782.201.05.403.05.656.05.05 0 .101-.05.101-.151 0-.05-.05-.101-.101-.101zm-23.037-24.2l.606-6.971c3.082-6.063 9.447-15.308 12.125-15.308.91 0 1.616.455 2.122 1.314.454.808.707 1.97.707 3.435 0 6.517-5.355 18.591-15.661 18.945l.1-1.414zm6.87-22.026c.203.454-.505 1.515-1.717 2.627a15.136 15.136 0 0 1-2.83 2.071c.91-3.031 2.123-4.95 3.992-4.95.303 0 .505.1.556.252z" font-family="Beautylove"/><path style="-inkscape-font-specification:Beautylove" d="M66.26 29.15c-.1 0-.151 0-.202.101-1.515 3.183-5.406 9.65-9.093 7.83 1.01-3.99 0-9.548-2.122-10.81-1.87-1.011-3.335 1.01-3.486 2.525-.758.354-1.364.91-1.87 1.668-.858 1.313-1.313 2.98-1.313 4.748 0 2.93 1.364 6.113 4.395 6.113 1.87 0 3.335-1.212 4.143-3.485 0-.102.05-.152.1-.253 4.245 1.516 8.236-5.608 9.499-8.235.05-.05 0-.151-.05-.202zm-9.8 8.639c-.556 1.516-1.668 3.284-3.89 3.284-.81 0-1.264-.859-1.466-1.516a12.975 12.975 0 0 1-.556-3.738c0-1.92.354-4.75.86-6.164.05 2.83 2.323 6.72 5.152 7.881l-.1.253zm.252-.859c-2.476-1.01-5.456-7.679-3.94-10.104.404-.657 1.414-.707 1.92-.353 2.02 1.212 3.03 6.618 2.02 10.457z" font-family="Beautylove"/><path style="-inkscape-font-specification:Beautylove" d="M81.554 29.15c-.1 0-.151 0-.202.101-1.515 3.183-5.405 9.65-9.093 7.83 1.01-3.99 0-9.548-2.122-10.81-1.87-1.011-3.335 1.01-3.486 2.525-.758.354-1.364.91-1.87 1.668-.858 1.313-1.313 2.98-1.313 4.748 0 2.93 1.364 6.113 4.395 6.113 1.87 0 3.335-1.212 4.143-3.485 0-.102.05-.152.101-.253 4.244 1.516 8.235-5.608 9.498-8.235.05-.05 0-.151-.05-.202zm-9.8 8.639c-.556 1.516-1.668 3.284-3.89 3.284-.809 0-1.264-.859-1.466-1.516-.303-.96-.555-2.324-.555-3.738 0-1.92.353-4.75.858-6.164.051 2.83 2.324 6.72 5.153 7.881l-.1.253zm.252-.859c-2.475-1.01-5.456-7.679-3.94-10.104.404-.657 1.414-.707 1.92-.353 2.02 1.212 3.03 6.618 2.02 10.457z" font-family="Beautylove"/><path style="-inkscape-font-specification:Beautylove" d="M111.045 29.15c-.101 0-.152 0-.202.101-.05.101-5.356 12.731-7.882 12.731-.1 0-.202-.05-.303-.151-.555-.607-.353-2.88-.151-5.254.252-3.638.606-8.084-1.061-9.902-.505-.556-1.213-.86-2.021-.86-1.566 0-2.576 3.89-3.89 8.842-.606 2.172-1.212 4.395-1.92 6.567-.606-.151-.606-1.768-.606-3.587-.05-3.283-.05-7.83-3.738-7.83 0 0-.051 0-.152.1-.657 3.386-2.728 12.075-4.294 12.075a.459.459 0 0 1-.354-.151c-.606-.657-.606-2.93-.556-5.406.101-3.132.152-6.72-1.111-8.033-.354-.303-.758-.505-1.263-.505-.101 0-.101 0-.152.101-.05.404-1.465 10.054 1.263 13.236.607.657 1.314 1.01 2.173 1.01 2.02 0 4.193-10.457 4.547-12.124.909.101.96 1.97 1.01 4.143.101 3.233.202 7.224 3.334 7.224.101 0 .101-.05.152-.101.707-2.172 1.313-4.446 1.87-6.669 1.262-4.648 2.323-8.639 3.687-8.639a.46.46 0 0 1 .404.202c.657.657.455 3.133.253 5.71-.253 3.637-.556 7.78 1.01 9.446.455.506 1.112.809 1.87.809 2.728 0 7.931-12.378 8.133-12.883.05-.1 0-.151-.05-.202z" font-family="Beautylove"/><path style="-inkscape-font-specification:Beautylove" d="M125.495 29.15c-.05 0-.101 0-.152.101-1.364 3.334-7.325 7.224-9.295 9.548-.809-3.233-2.223-7.931-3.183-10.154l-.354-1.01c1.97-3.587 2.627-7.78 1.819-9.397-.253-.455-.606-.708-1.01-.708-8.538 0-.657 18.188.656 22.431-.707.758-1.364 1.465-2.07 2.122-3.133 3.183-5.407 5.456-4.295 7.881.202.758 1.364.96 1.97.96.303 0 .657-.05 1.01-.1 6.113-1.365 7.478-5.76 5.558-11.721 2.02-2.375 8.032-6.315 9.447-9.75 0-.102 0-.152-.101-.203zm-16.57 21.168c-.506.101-.91-.05-1.112-.455-1.01-2.273 1.212-4.496 4.294-7.578l1.97-2.02c1.213 4.041-1.566 9.346-5.153 10.053zm3.94-32.181c.657-.556 1.01-.152 1.212.202.708 1.364.304 5.304-1.667 8.942-.758-3.132-.859-8.033.455-9.144z" font-family="Beautylove"/><path style="line-height:100%;-inkscape-font-specification:'Adobe Gothic Std Bold'" d="M7.06 53.239H2.2v21.147c0 1.872-.066 3.94-.131 5.254h4.137l.23-2.528h.099c1.15 2.069 2.89 2.89 4.925 2.89 3.777 0 7.488-3.218 7.488-9.852 0-5.45-2.693-9.194-6.732-9.194-2.332 0-4.04.985-5.09 2.594H7.06V53.239zm0 15.532c0-2.364 1.61-3.94 3.284-3.94 2.496 0 3.71 2.43 3.71 5.55 0 3.546-1.346 5.746-3.71 5.746-1.937 0-3.284-1.708-3.284-3.777v-3.579zm23.126 2.135c-.263 1.149-.558 2.43-.755 3.415h-.099c-.23-1.018-.558-2.299-.854-3.415l-2.692-9.556h-5.32l6.14 16.813c.132.36.198.624.198.82 0 .362-.821 2.234-2.43 3.383-.854.591-1.774 1.116-2.562 1.346l1.215 4.105c1.084-.197 2.956-.854 4.729-2.561 2.069-2.07 3.612-5.287 5.648-11.198l4.138-12.708h-5.057l-2.3 9.556z" font-weight="700" font-size="32.838" font-family="Adobe Gothic Std" baseline-shift="super"/><path style="line-height:100%;-inkscape-font-specification:'Copperplate Bold'" d="M59.22 84.49q2.223 0 3.032-.808.858-.859.858-1.97 0-1.112-.858-1.92-.809-.859-3.032-.859h-8.487v5.557h8.487zm-8.487 13.843q0 .353.202.606.253.202 1.213.303v.606H41.74v-.606q.96-.1 1.162-.303.253-.253.253-.606V74.79q0-.353-.253-.555-.202-.253-1.162-.354v-.606h18.49q5.608 0 8.134 2.071 2.526 2.021 2.526 6.315 0 3.486-2.07 5.456-2.022 1.97-5.154 2.83l5.961 8.386q.607.91 1.466.91v.605H60.584v-.606q1.112-.05 1.112-.91 0-.1-.404-.706-.404-.607-1.01-1.466-.607-.858-1.365-1.818-.707-1.01-1.414-1.92-.657-.91-1.162-1.617-.505-.707-.657-.96h-4.951v8.488zm36.764-20.107q-.758.05-1.213.202-.404.152-.404.707v19.198q0 .556.404.707.455.152 1.213.202v.606H77.494v-.606q.757-.05 1.162-.202.454-.151.454-.707V79.135q0-.555-.454-.707-.405-.152-1.162-.202v-.606h10.003v.606zm27.484 7.932l-.707-.354.1-.404q.102-.202.102-.455 0-.303-.657-.707-.606-.404-1.617-.708-.96-.353-2.222-.606-1.213-.252-2.476-.252-1.414 0-2.88.353-1.465.354-2.627 1.112-1.162.707-1.92 1.869-.757 1.111-.757 2.728 0 1.566.758 2.728.757 1.162 1.92 1.92 1.161.707 2.626 1.06 1.466.354 2.88.354 1.516 0 2.83-.353 1.363-.404 2.374-.91 1.06-.555 1.616-1.06.607-.556.607-.809v-.454q0-.304-.051-.455l.556-.354 4.8 6.921-.607.354q-.455-.556-.808-.556-.202 0-1.112.455-.859.455-2.324 1.061-1.465.556-3.486.96-1.97.404-4.395.404-2.778 0-5.456-.556-2.627-.555-4.698-1.869-2.072-1.364-3.335-3.536-1.263-2.173-1.263-5.305 0-3.082 1.263-5.254 1.263-2.172 3.335-3.536 2.07-1.364 4.698-1.97 2.678-.657 5.456-.657 1.667 0 3.233.303 1.567.252 2.88.555 1.314.303 2.273.607.96.252 1.364.252.253 0 .455-.151.202-.152.303-.303l.607.202-3.638 7.376zm25.933 13.084q.354 0 .86-.151.555-.152.555-.708 0-.151-.354-.707-.353-.606-.909-1.414-.505-.809-1.162-1.769-.657-1.01-1.263-1.869-.606-.91-1.111-1.617-.455-.707-.657-1.06l-4.395 4.243v4.143q0 .556.454.707.455.152.96.202v.606h-9.447v-.606q.455.05.859-.151.404-.202.404-.758V79.135q0-.555-.404-.758-.404-.202-.86-.151v-.606h9.448v.606q-.505.05-.96.202-.454.152-.454.707v9.296q.757-.657 1.768-1.566 1.06-.91 2.172-1.87 1.162-1.01 2.274-1.97 1.111-.96 1.97-1.768.91-.859 1.414-1.414.556-.556.556-.708 0-.555-.455-.707-.404-.152-.808-.202v-.606h9.852v.606q-.758.1-1.97 1.06-1.213.96-2.577 2.224-1.364 1.212-2.728 2.526-1.314 1.263-2.274 2.02l8.387 12.428q.252.405.505.556.303.152.657.202v.606h-10.307v-.606z" font-weight="700" font-family="Copperplate"/></g></svg>