<svg xmlns="http://www.w3.org/2000/svg" viewBox="0 0 50.000002 19.709363" height="21.023" width="53.333"><g style="line-height:125%"><path style="-inkscape-font-specification:'Ambassador Script Flourishes'" d="M10.4 0c14.895 0 19.89 19.3 30.427 19.3 4.36 0 8.719-2.633 8.719-7.81 0-4.224-4.36-7.403-8.856-7.403-3.587 0-6.448 2.362-6.448 5.041 0 2.725 2.951 5.359 6.902 5.359 2.544 0 3.406-.954 3.406-2.816 0-1.453-1.317-2.815-2.906-2.815-.863 0-1.59.09-2.27.454l-.228-.318a5.111 5.111 0 0 1 2.18-.5c1.953 0 3.679 1.136 3.679 3.088 0 2.498-1.726 3.452-3.86 3.452-3.27 0-7.312-2.362-7.312-5.768 0-3.814 3.77-5.676 6.948-5.676 6.04 0 9.219 4.586 9.219 8.038 0 5.45-4.678 8.083-9.037 8.083C26.839 19.71 22.07.5 10.536.5 6.04.5 1.589 2.862 1.589 8.085c0 .908.182 1.725.545 2.497 2.407-2.68 5.041-3.769 7.357-3.769 3.406 0 5.087 2.225 5.087 4.405 0 2.135-1.635 4.269-4.814 4.269-3.134 0-6.222-1.635-7.72-4.178a17.322 17.322 0 0 0-1.726 2.407L0 13.488a18.36 18.36 0 0 1 1.862-2.543 6.302 6.302 0 0 1-.727-2.952C1.135 2.86 5.904 0 10.4 0zm-.863 15.032c3.133 0 4.723-1.862 4.723-3.86 0-1.999-1.68-4.042-5.087-4.042-2.134 0-4.54 1.09-6.857 3.815 1.317 2.497 4.314 4.087 7.22 4.087z" font-family="Ambassador Script Flourishes" font-weight="400" font-size="31.285" letter-spacing="0" word-spacing="0"/></g></svg>